<?xml version="1.0" encoding="UTF-8" standalone="no"?>
<!-- Created with Inkscape (http://www.inkscape.org/) -->

<svg
   width="26.458336mm"
   height="26.458342mm"
   viewBox="0 0 26.458336 26.458342"
   version="1.1"
   id="svg1"
   xml:space="preserve"
   inkscape:export-filename="SimpleCat.svg"
   inkscape:export-xdpi="96"
   inkscape:export-ydpi="96"
   xmlns:inkscape="http://www.inkscape.org/namespaces/inkscape"
   xmlns:sodipodi="http://sodipodi.sourceforge.net/DTD/sodipodi-0.dtd"
   xmlns="http://www.w3.org/2000/svg"
   xmlns:svg="http://www.w3.org/2000/svg"><sodipodi:namedview
     id="namedview1"
     pagecolor="#505050"
     bordercolor="#eeeeee"
     borderopacity="1"
     inkscape:showpageshadow="0"
     inkscape:pageopacity="0"
     inkscape:pagecheckerboard="0"
     inkscape:deskcolor="#505050"
     inkscape:document-units="mm" /><defs
     id="defs1" /><g
     inkscape:label="Layer 1"
     inkscape:groupmode="layer"
     id="layer1"><path
       style="fill:#000000;stroke-width:0.110777"
       d="m 11.095863,26.442958 c -0.779174,-0.01905 -2.0215629,-0.0814 -2.5543119,-0.128189 -0.08074,-0.0071 -0.311949,-0.02659 -0.5137983,-0.04334 -1.9288068,-0.160006 -3.4888252,-0.386204 -4.6388649,-0.672622 -1.223437,-0.304699 -1.761594,-0.614602 -1.761594,-1.014434 0,-0.35038 0.484496,-0.661451 1.456802,-0.935338 0.208006,-0.05859 0.388459,-0.11567 0.401007,-0.126836 0.01255,-0.01117 -0.05193,-0.144374 -0.143276,-0.296015 -0.09135,-0.15164 -0.335032,-0.578546 -0.541516,-0.94868 C 2.5938269,21.907371 2.2908219,21.380699 2.1269649,21.107123 0.77412986,18.848412 0.02126086,16.362043 6.2686331e-4,14.084829 -0.01223314,12.665967 0.17263586,11.362043 0.56784886,10.083999 1.1549789,8.1853288 2.3673289,6.0251898 3.7415449,4.4291758 3.8894943,4.2573478 4.0647998,4.0097748 4.1662754,3.8293558 4.4760225,3.2786378 5.1382548,2.2851228 5.4993011,1.8294808 6.3616706,0.74116879 6.9451132,0.13823379 7.2292299,0.04175579 c 0.1824709,-0.06196 0.258402,-0.05704 0.4432667,0.02872 0.2544635,0.118049 0.8098694,0.739933 1.4886425,1.66682201 0.1296343,0.177021 0.3238864,0.4417 0.4316714,0.588178 l 0.1959725,0.266322 0.976499,-0.0079 c 1.161702,-0.0094 1.313077,0.0038 2.585601,0.225089 l 0.199828,0.03475 0.137811,-0.131731 c 0.299249,-0.286048 1.166815,-1.005062 1.697703,-1.40701 0.318289,-0.240984 1.010675,-0.68760401 1.265979,-0.81661301 0.206828,-0.104513 0.27549,-0.125129 0.41392,-0.124281 0.241125,0.0015 0.378512,0.05975 0.569959,0.241731 0.201453,0.191496 0.416284,0.50887101 0.736192,1.08758701 0.943461,1.706733 1.784551,3.910788 2.350387,6.159136 0.146073,0.580419 0.462521,2.077212 0.59076,2.7942882 0.09431,0.527331 0.1181,0.590717 0.391642,1.043364 0.144332,0.238833 0.374569,0.649453 0.511637,0.912486 0.174199,0.334284 0.256885,0.466398 0.27469,0.438893 0.01401,-0.02164 0.02995,-0.329019 0.03543,-0.683059 0.01249,-0.807903 -0.04604,-1.303237 -0.27567,-2.332765 -0.217391,-0.9746712 -0.258964,-1.2844902 -0.238615,-1.7782112 0.03178,-0.771159 0.261606,-1.311107 0.748367,-1.758228 0.256375,-0.235495 0.463334,-0.359834 0.790573,-0.474964 0.232056,-0.08164 0.291704,-0.09056 0.609547,-0.09116 0.414604,-7.85e-4 0.617844,0.04534 0.975714,0.221436 0.292803,0.144077 0.595496,0.413063 0.785723,0.698227 0.435656,0.653081 0.565999,1.365154 0.530275,2.896931 -0.02437,1.0450772 -0.06654,2.3513082 -0.0902,2.7942872 -0.0077,0.144834 -0.0276,0.546422 -0.04414,0.892417 -0.06347,1.327758 -0.165901,2.184009 -0.385017,3.21855 -0.242781,1.146277 -0.510809,1.973453 -0.91017,2.808918 -0.176878,0.370028 -0.443965,0.849022 -0.562584,1.008937 -0.329249,0.443873 -0.444989,0.584797 -0.636776,0.775331 -0.121801,0.121006 -0.309941,0.284713 -0.418089,0.363792 -0.187993,0.137466 -0.201316,0.155461 -0.303313,0.409635 -0.141059,0.351518 -0.408367,0.914363 -0.563563,1.186641 -0.06863,0.120404 -0.12478,0.23456 -0.12478,0.253681 0,0.02059 0.164596,0.0732 0.403699,0.129039 0.790256,0.184544 1.346236,0.407413 1.582408,0.634322 0.189548,0.182111 0.235308,0.361608 0.146307,0.573891 -0.209166,0.498891 -1.760747,0.942037 -4.525246,1.292453 -0.972473,0.123267 -2.102377,0.220237 -3.728707,0.320005 -0.825502,0.05064 -3.835849,0.07455 -5.196703,0.04127 z m 3.782722,-1.489937 c 0.731023,-0.148937 1.092765,-0.532472 1.750767,-1.856245 0.341265,-0.686561 0.651318,-1.402473 0.92505,-2.135948 0.108104,-0.289669 0.221384,-0.566997 0.251732,-0.616285 0.07454,-0.121061 0.184713,-0.174148 0.356053,-0.171569 0.164491,0.0025 0.271476,0.06765 0.361731,0.220351 0.108165,0.183009 0.05459,0.672104 -0.145232,1.325937 -0.112748,0.368912 -0.114935,0.35595 0.05715,0.3388 0.315507,-0.03144 0.49608,-0.01479 0.646838,0.05967 0.206635,0.102047 0.286905,0.231227 0.270457,0.435251 -0.011,0.136424 -0.02735,0.171746 -0.117695,0.25426 -0.110412,0.100839 -0.191537,0.12801 -0.549891,0.184173 -0.410438,0.06432 -0.665293,0.233863 -0.917644,0.610451 -0.161362,0.240805 -0.286262,0.483748 -0.286262,0.556813 0,0.140679 0.238866,0.250692 0.675278,0.31101 0.723908,0.100054 1.52284,-0.07094 2.073452,-0.443787 0.798935,-0.540993 1.434952,-1.637241 1.813624,-3.125989 0.230691,-0.906956 0.337125,-2.2452 0.255475,-3.212185 -0.147774,-1.750097 -0.734015,-3.455964 -1.856581,-5.402358 -0.435846,-0.755703 -0.427161,-0.736305 -0.465084,-1.038714 -0.08102,-0.646071 -0.446102,-2.2780782 -0.752722,-3.3648492 -0.643805,-2.281875 -1.587013,-4.752062 -2.141518,-5.608462 -0.188598,-0.291281 -0.18972,-0.291386 -0.514649,-0.048328 -0.151993,0.113695 -0.406522,0.320391 -0.565621,0.459322 -0.159098,0.138932 -0.324248,0.282894 -0.366999,0.319916 -0.157832,0.136684 -1.266804,1.247756 -1.266804,1.269204 0,0.01221 0.07049,0.0741 0.156641,0.137529 0.274781,0.202299 0.374539,0.369539 0.277885,0.465863 -0.05367,0.05349 -0.116175,0.04343 -0.366248,-0.05896 -0.207963,-0.08515 -0.259001,-0.09414 -0.538036,-0.09476 -0.244998,-5.53e-4 -0.372792,0.01615 -0.622558,0.08133 -0.567966,0.148232 -0.936718,0.103487 -1.186637,-0.143988 -0.156957,-0.155421 -0.199319,-0.286741 -0.178975,-0.554812 l 0.01605,-0.211471 -0.08925,-0.01779 c -0.04908,-0.0098 -0.165692,-0.01779 -0.259126,-0.01779 -0.153685,0 -0.177131,0.0086 -0.245956,0.0901 -0.04184,0.04956 -0.128692,0.179884 -0.192999,0.289617 -0.150792,0.25731 -0.26199,0.351769 -0.414106,0.351769 -0.09871,0 -0.124282,-0.0139 -0.174871,-0.09509 -0.07366,-0.118215 -0.05755,-0.236669 0.06241,-0.458719 0.04718,-0.08734 0.08579,-0.169637 0.08579,-0.182872 0,-0.06175 -0.8783467,0.01359 -1.4533155,0.124646 l -0.293599,0.05671 -0.049963,-0.06032 C 8.8751475,3.9412818 8.7637686,3.7469318 8.6551188,3.5425728 8.2520224,2.7843888 7.6421718,1.8373238 7.4278936,1.6367568 l -0.076148,-0.07127 -0.080375,0.05894 c -0.2154206,0.157982 -1.223147,1.612428 -1.7643759,2.546514 -0.1399183,0.24148 -0.1462989,0.27282 -0.055573,0.272971 0.092943,1.54e-4 0.2519275,0.103301 0.2910225,0.188812 0.046531,0.101776 -0.030785,0.208823 -0.2043886,0.282984 -0.698371,0.298334 -1.6433518,1.372319 -2.4752337,2.813141 -0.304393,0.527209 -0.787876,1.525001 -0.754878,1.557886 0.0073,0.0073 0.09165,0.02015 0.187451,0.0286 0.662519,0.05846 1.170761,0.219187 1.344747,0.425251 0.1563635,0.185192 0.061957,0.4549842 -0.185013,0.5287242 -0.09566,0.02856 -0.147406,0.02253 -0.372175,-0.04337 -0.391671,-0.114845 -0.690905,-0.164304 -0.994065,-0.164304 h -0.272757 l -0.06077,0.168243 c -0.104012,0.28797 -0.163199,0.50323 -0.143708,0.522656 0.01029,0.01025 0.161283,-0.01623 0.335549,-0.05886 0.534153,-0.130641 1.091905,-0.172934 1.33265,-0.101051 0.314038,0.09376 0.365584,0.479658 0.0825,0.617642 -0.058,0.02827 -0.302418,0.07853 -0.543158,0.111686 -0.387661,0.05339 -1.102325,0.18891 -1.347866,0.255586 -0.08319,0.02259 -0.09085,0.03763 -0.137982,0.270776 -0.126539,0.625961 -0.154623,0.978829 -0.154715,1.943912 -9.1e-5,0.965856 0.008,1.071739 0.148415,1.931131 0.197031,1.206305 0.672203,2.637302 1.252201,3.771042 0.256155,0.500715 0.429493,0.745267 0.660824,0.932318 l 0.198371,0.160401 0.143403,0.406295 c 0.246511,0.698424 0.6224578,1.67314 0.8391782,2.175732 0.3994624,0.926388 0.846752,1.230795 1.8212892,1.239497 0.6039121,0.0054 0.9960888,-0.125187 1.2825441,-0.427036 0.2603839,-0.274377 0.3396325,-0.59097 0.4018984,-1.605552 0.03517,-0.573066 0.04504,-0.641604 0.1043522,-0.724615 0.085611,-0.119818 0.2043117,-0.178606 0.3603603,-0.178471 0.2461396,2.22e-4 0.4394045,0.192551 0.5017014,0.499293 l 0.037938,0.186802 0.2100739,0.03505 c 0.2915318,0.04865 0.9951244,0.09801 1.3969244,0.09801 0.276575,0 0.342997,-0.0085 0.376177,-0.04837 0.02952,-0.03544 0.04517,-0.199602 0.05854,-0.614213 0.01765,-0.54737 0.021,-0.571339 0.10276,-0.734321 0.107752,-0.214794 0.253417,-0.308043 0.455187,-0.291389 0.194949,0.01609 0.331466,0.111336 0.421009,0.293731 0.11203,0.228197 0.143077,0.442166 0.295761,2.038275 0.112739,1.178538 0.384188,1.685305 1.041154,1.943732 0.357467,0.140614 0.915464,0.170098 1.389891,0.07344 z m 1.795659,-11.729552 c -0.0323,-0.01307 -0.187026,-0.104317 -0.343846,-0.202778 -0.33918,-0.212958 -0.640656,-0.367107 -1.062125,-0.543084 -0.353694,-0.147678 -0.415902,-0.185671 -0.491773,-0.300348 -0.12774,-0.193072 0.0035,-0.446877 0.255368,-0.493972 0.234523,-0.04385 0.778132,0.143688 1.322655,0.456288 0.656046,0.376625 0.828483,0.549185 0.795285,0.795851 -0.02995,0.222542 -0.273244,0.369902 -0.475564,0.288043 z m 0.132119,-1.571711 c -0.304773,-0.117549 -0.686286,-0.2082 -1.159716,-0.275558 -0.512873,-0.07297 -0.608762,-0.106016 -0.689204,-0.237506 -0.09225,-0.150799 -0.07345,-0.27257 0.06561,-0.424813 0.151333,-0.165678 0.736282,-0.151648 1.482018,0.03555 0.696018,0.174714 1.005929,0.370994 1.005929,0.6371 0,0.313913 -0.292728,0.424097 -0.704638,0.265229 z M 9.8455829,11.582818 C 9.5140798,11.526908 9.1469811,11.317826 8.8443635,11.012561 L 8.6589907,10.825567 8.4837649,10.969946 c -0.3078068,0.253621 -0.76886,0.435545 -1.1078248,0.43713 -0.4651185,0.0022 -0.9309071,-0.29556 -1.0788435,-0.689604 -0.070454,-0.187662 -0.079404,-0.465837 -0.01958,-0.608529 0.083982,-0.2003102 0.3371009,-0.2868712 0.5372457,-0.1837252 0.092612,0.04773 0.1392174,0.1348262 0.1692643,0.3163312 0.064983,0.392542 0.5820597,0.418569 1.0456766,0.05263 0.1294025,-0.102139 0.2916484,-0.3343362 0.2916484,-0.4173912 0,-0.03178 -0.058572,-0.120189 -0.1301602,-0.19646 -0.1528609,-0.162863 -0.1910851,-0.29865 -0.1294792,-0.45996 0.068165,-0.178486 0.1880246,-0.227114 0.5532384,-0.224458 0.6619602,0.0048 0.9750076,0.171951 0.9264519,0.494637 -0.021118,0.140346 -0.1093786,0.237895 -0.3025539,0.334394 -0.09708,0.0485 -0.1247795,0.07865 -0.1247795,0.135827 0,0.2180052 0.2828398,0.5408512 0.6085183,0.6945912 0.1688509,0.07971 0.232126,0.09388 0.4190786,0.09388 0.28801,0 0.393291,-0.05873 0.516234,-0.287974 0.127674,-0.238066 0.178324,-0.280627 0.341262,-0.286769 0.108573,-0.0041 0.159037,0.01114 0.239523,0.07232 0.324851,0.246929 0.150496,0.876927 -0.321039,1.16001 -0.293298,0.176078 -0.687649,0.240812 -1.0720631,0.175983 z M 12.284939,9.9530548 c -0.425555,-0.07446 -0.808639,-0.398367 -0.970513,-0.820605 -0.08961,-0.233734 -0.09083,-0.672603 -0.0026,-0.945527 0.199126,-0.616252 0.721358,-0.992715 1.377103,-0.992715 0.295216,0 0.54285,0.05527 0.725433,0.161902 0.15634,0.09131 0.400895,0.345896 0.478937,0.498585 0.412907,0.807845 -0.05053,1.849096 -0.922593,2.072879 -0.167021,0.04286 -0.512925,0.05571 -0.68572,0.02548 z m 1.250731,-1.687947 c 0.08328,-0.083 0.09972,-0.120573 0.09917,-0.226761 -0.0018,-0.343613 -0.459682,-0.447083 -0.617163,-0.139452 -0.08647,0.168915 -0.01853,0.346419 0.162726,0.425144 0.151269,0.0657 0.245971,0.04999 0.355267,-0.058931 z M 5.6439275,9.3863668 C 5.2852447,9.3339368 4.9103568,9.0450658 4.745195,8.6938368 4.672376,8.5389838 4.666072,8.4962578 4.666399,8.1597738 c 4.217e-4,-0.43245 0.050663,-0.593632 0.2763931,-0.886687 0.2740968,-0.355847 0.6932576,-0.559013 1.1472067,-0.556049 0.5628922,0.0037 0.964219,0.26016 1.1471444,0.73313 0.094535,0.24443 0.095712,0.708032 0.00246,0.969623 -0.1806244,0.506691 -0.5604258,0.851004 -1.0536041,0.955154 -0.2185048,0.04614 -0.2936859,0.04773 -0.5420728,0.01142 z m 1.2156387,-1.662492 c 0.077674,-0.06916 0.095216,-0.106595 0.095216,-0.203168 0,-0.356379 -0.552387,-0.421885 -0.6180085,-0.07329 -0.056026,0.297621 0.2922154,0.481772 0.5227925,0.276456 z M 23.907418,18.595883 c 0.590928,-1.192679 0.991253,-2.96601 1.104228,-4.891424 0.0365,-0.622018 0.04333,-0.80785 0.0619,-1.682424 0.01076,-0.506922 0.02374,-0.929001 0.02884,-0.937953 0.0051,-0.009 0.01809,-0.601459 0.02886,-1.3166802 0.02091,-1.388049 0.0069,-1.641681 -0.107437,-1.946261 -0.09052,-0.241118 -0.338072,-0.487018 -0.554879,-0.551183 -0.314551,-0.09309 -0.583482,-0.03494 -0.820479,0.177412 -0.401194,0.359475 -0.444997,0.81623 -0.193191,2.014454 0.213282,1.0149052 0.243402,1.1729312 0.309523,1.6239052 0.20126,1.372702 0.07029,2.995194 -0.330169,4.090308 l -0.09944,0.271935 0.05375,0.298626 c 0.1839,1.02172 0.284093,2.069618 0.287062,3.002354 5.55e-4,0.182707 0.002,0.186136 0.05677,0.136746 0.0309,-0.02786 0.109494,-0.158281 0.174665,-0.289815 z"
       id="path1" /></g></svg>
